<svg width="234" height="156" xmlns="http://www.w3.org/2000/svg" xmlns:xlink="http://www.w3.org/1999/xlink" xml:space="preserve" overflow="hidden"><defs><clipPath id="clip0"><rect x="1019" y="638" width="234" height="156"/></clipPath></defs><g clip-path="url(#clip0)" transform="translate(-1019 -638)"><path d="M1019 657.5C1019 646.73 1027.73 638 1038.5 638 1049.27 638 1058 646.73 1058 657.5 1058 668.269 1049.27 677 1038.5 677 1027.73 677 1019 668.269 1019 657.5Z" fill="#FF0000" fill-rule="evenodd" fill-opacity="0.301961"/><path d="M1214 658C1214 647.507 1222.73 639 1233.5 639 1244.27 639 1253 647.507 1253 658 1253 668.493 1244.27 677 1233.5 677 1222.73 677 1214 668.493 1214 658Z" fill="#FF0000" fill-rule="evenodd" fill-opacity="0.301961"/><path d="M1019 774.5C1019 763.73 1027.73 755 1038.5 755 1049.27 755 1058 763.73 1058 774.5 1058 785.27 1049.27 794 1038.5 794 1027.73 794 1019 785.27 1019 774.5Z" fill="#FF0000" fill-rule="evenodd" fill-opacity="0.301961"/><path d="M1214 774.5C1214 763.73 1222.73 755 1233.5 755 1244.27 755 1253 763.73 1253 774.5 1253 785.27 1244.27 794 1233.5 794 1222.73 794 1214 785.27 1214 774.5Z" fill="#FF0000" fill-rule="evenodd" fill-opacity="0.301961"/></g></svg>